# xmcd CD database file
#
# Track frame offsets:
#	150
#	12729
#	36518
#	58877
#	80282
#	97888
#	115419
#	136421
#	160423
#	187299
#	200792
#	226030
#	243049
#	266202
#
# Disc length: 3682 seconds
#
# Revision: 0
# Processed by: cddbd v1.5.2PL0 Copyright (c) Steve Scherf et al.
# Submitted via: CDex 1.51
#
DISCID=cb0e600e
DTITLE=Massimo Faraò Trio - Jazz Lounge
DYEAR=2006
DGENRE=Jazz
TTITLE0=Ave Maria
TTITLE1=Al Chiaro Di Luna
TTITLE2=Minuetto String Quartet
TTITLE3=Notturno in G. Minor
TTITLE4=Inno Alla Gioia
TTITLE5=Pavane Pour Une Infant Defunte
TTITLE6=Vesti La Giubba
TTITLE7=Salut D'Amor
TTITLE8=Symphony Nr. 4 in Bb Op. 60
TTITLE9=Symphony Nr. 7 in A Op. 92
TTITLE10=The Palms
TTITLE11=Theme From Norwegian Dance Nr. 1
TTITLE12=Tu Che M'Hai Preso Il Cuor
TTITLE13=Ave Maria
EXTD=YEAR: 2006
EXTT0=
EXTT1=
EXTT2=
EXTT3=
EXTT4=
EXTT5=
EXTT6=
EXTT7=
EXTT8=
EXTT9=
EXTT10=
EXTT11=
EXTT12=
EXTT13=
PLAYORDER=
